<svg width="46" height="28" viewBox="0 0 46 28" fill="none" xmlns="http://www.w3.org/2000/svg">
<path d="M13.624 27.3329C21.1483 27.3329 27.248 21.2332 27.248 13.7089C27.248 6.18456 21.1483 0.0848999 13.624 0.0848999C6.09967 0.0848999 0 6.18456 0 13.7089C0 21.2332 6.09967 27.3329 13.624 27.3329Z" fill="white"/>
<path d="M31.8497 27.2587C24.34 27.2907 18.1937 21.2084 18.1618 13.688C18.1298 6.16767 24.2228 0.0320815 31.7325 0.000125347C39.2422 -0.0318308 45.3884 6.05049 45.4204 13.5708C45.4523 21.0912 39.37 27.2268 31.8497 27.2587ZM31.7538 4.5379C26.7473 4.55921 22.6889 8.6496 22.7102 13.6667C22.7315 18.6732 26.8219 22.7316 31.839 22.7103C36.8455 22.689 40.9039 18.5986 40.8826 13.5815C40.8613 8.57503 36.7603 4.5166 31.7538 4.5379Z" fill="white"/>
</svg>
