<svg width="35" height="28" viewBox="0 0 35 28" fill="none" xmlns="http://www.w3.org/2000/svg">
<path d="M31.253 27.2518H3.26525C1.47195 27.2518 0 25.7799 0 23.9866V3.26524C0 1.47194 1.47195 0 3.26525 0H31.253C33.0463 0 34.5183 1.47194 34.5183 3.26524V23.9866C34.5183 25.7799 33.0463 27.2518 31.253 27.2518Z" fill="#F15623"/>
<path d="M13.2787 23.6134C13.1336 23.6134 12.9884 23.5305 12.9262 23.3957C12.8226 23.1988 12.9055 22.9603 13.1025 22.8567C13.683 22.5561 14.4708 22.0067 14.9269 21.0427C15.5073 19.8195 15.3519 18.4927 15.1134 18.3786C15.0512 18.3475 14.8128 18.4719 14.6677 18.5445C14.2945 18.7414 13.7659 19.0006 13.1647 18.7933C12.5738 18.586 12.2836 18.0573 12.1488 17.8085C11.247 16.15 10.9671 11.8378 11.9208 9.69206C12.2421 8.97681 12.6671 8.56217 13.2061 8.43778C13.7555 8.31339 14.2012 8.54144 14.5537 8.72802C14.8439 8.88351 14.9994 8.94571 15.0823 8.89388C15.4555 8.66583 15.4452 7.29754 14.9269 6.20913C14.4708 5.24511 13.683 4.69572 13.1025 4.39511C12.9055 4.29145 12.833 4.05303 12.9262 3.85608C13.0299 3.65913 13.2683 3.58657 13.4653 3.67986C14.1494 4.0323 15.0927 4.69571 15.6421 5.86705C16.1915 7.01766 16.4506 8.99754 15.4866 9.57803C14.9994 9.86828 14.5433 9.62986 14.1701 9.44327C13.8903 9.29815 13.6311 9.16339 13.372 9.22558C13.0195 9.30851 12.7811 9.71278 12.636 10.0341C11.7964 11.9 12.0348 15.9841 12.833 17.4457C12.9677 17.6945 13.1336 17.964 13.4134 18.0573C13.683 18.1506 13.9317 18.0366 14.2945 17.85C14.647 17.6738 15.0409 17.4664 15.4555 17.6738C16.347 18.1091 16.2952 20.0372 15.6421 21.4055C15.0927 22.5664 14.1494 23.2402 13.4653 23.5927C13.4031 23.603 13.3409 23.6134 13.2787 23.6134Z" fill="#F6C859"/>
<path d="M12.0866 10.4177H4.89269C4.67501 10.4177 4.48843 10.2414 4.48843 10.0134C4.48843 9.78535 4.66465 9.60913 4.89269 9.60913H12.0866C12.3043 9.60913 12.4909 9.78535 12.4909 10.0134C12.4909 10.2414 12.3043 10.4177 12.0866 10.4177Z" fill="#F6C859"/>
<path d="M12.0866 17.6219H4.89269C4.67501 17.6219 4.48843 17.4457 4.48843 17.2176C4.48843 16.9896 4.66465 16.8134 4.89269 16.8134H12.0866C12.3043 16.8134 12.4909 16.9896 12.4909 17.2176C12.4909 17.4457 12.3043 17.6219 12.0866 17.6219Z" fill="#F6C859"/>
<path d="M21.675 23.6133C21.6128 23.6133 21.5506 23.603 21.4884 23.5719C20.8043 23.2194 19.861 22.556 19.3116 21.3847C18.6586 20.0164 18.6067 18.0883 19.4982 17.653C19.9128 17.456 20.3067 17.653 20.6592 17.8292C21.022 18.0158 21.2708 18.1298 21.5403 18.0365C21.8409 17.9328 22.0171 17.6115 22.1208 17.4249C22.9189 15.9633 23.1573 11.8895 22.3177 10.0133C22.1726 9.69199 21.9238 9.28772 21.5817 9.2048C21.364 9.15297 21.2293 8.93528 21.2811 8.72796C21.3329 8.51028 21.5506 8.38589 21.758 8.42736C22.297 8.55175 22.722 8.97675 23.0433 9.69199C23.997 11.8377 23.7275 16.1499 22.8153 17.8084C22.6805 18.0572 22.3903 18.5859 21.7994 18.7932C21.1982 19.0005 20.6695 18.7414 20.2964 18.5444C20.1512 18.4719 19.9025 18.3475 19.8506 18.3786C19.6122 18.4926 19.4567 19.8194 20.0372 21.0426C20.4933 22.0066 21.2811 22.556 21.8616 22.8566C22.0586 22.9603 22.1311 23.1987 22.0378 23.3957C21.9653 23.5304 21.8201 23.6133 21.675 23.6133Z" fill="#F6C859"/>
<path d="M20.0787 8.82135C19.9128 8.82135 19.7573 8.7177 19.6951 8.55184C18.8348 5.98111 20.8457 4.00123 21.4884 3.66952C21.6854 3.56586 21.9238 3.6488 22.0274 3.84575C22.1311 4.0427 22.0482 4.28111 21.8512 4.38477C21.561 4.52989 19.7159 6.11586 20.4518 8.30306C20.5244 8.51037 20.4104 8.73843 20.2031 8.81099C20.1616 8.81099 20.1201 8.82135 20.0787 8.82135Z" fill="#F6C859"/>
<path d="M30.0714 10.4177H22.8775C22.6598 10.4177 22.4732 10.2414 22.4732 10.0134C22.4732 9.78535 22.6494 9.60913 22.8775 9.60913H30.0714C30.289 9.60913 30.4756 9.78535 30.4756 10.0134C30.4756 10.2414 30.2994 10.4177 30.0714 10.4177Z" fill="#F6C859"/>
<path d="M30.0714 17.6219H22.8775C22.6598 17.6219 22.4732 17.4457 22.4732 17.2176C22.4732 16.9896 22.6494 16.8134 22.8775 16.8134H30.0714C30.289 16.8134 30.4756 16.9896 30.4756 17.2176C30.4756 17.4457 30.2994 17.6219 30.0714 17.6219Z" fill="#F6C859"/>
</svg>
