<svg width="35" height="28" viewBox="0 0 35 28" fill="none" xmlns="http://www.w3.org/2000/svg">
<path d="M34.9329 4.14351L34.9437 23.5016C34.9437 25.7854 33.0795 27.656 30.8142 27.656L4.17287 27.6778C1.88592 27.6778 0.0216772 25.8072 0.0216772 23.5342L0 4.17613C0 1.88143 1.86424 0.0217507 4.14035 0.0217507L30.7925 0C33.0686 0 34.9329 1.84881 34.9329 4.14351Z" fill="#F6C859"/>
<path d="M13.4724 23.9802C13.3207 23.9802 13.1798 23.904 13.1147 23.7627C13.0172 23.5669 13.093 23.3168 13.2881 23.2189C13.8734 22.9144 14.6646 22.3489 15.1307 21.381C15.716 20.1412 15.5643 18.7926 15.315 18.673C15.2499 18.6404 15.0115 18.7709 14.8597 18.847C14.4804 19.0428 13.9493 19.3146 13.3423 19.0971C12.7462 18.8905 12.4536 18.3576 12.3127 18.0966C11.3914 16.4109 11.1096 12.039 12.0742 9.86396C12.3994 9.14619 12.8329 8.71117 13.3749 8.58067C13.9276 8.45016 14.3828 8.67855 14.7405 8.8743C15.0332 9.02656 15.1849 9.09181 15.2824 9.03743C15.6618 8.80905 15.651 7.41701 15.1199 6.3186C14.6538 5.33982 13.8626 4.7743 13.2773 4.48066C13.0822 4.38279 12.9955 4.13265 13.1039 3.9369C13.2014 3.74114 13.4507 3.65414 13.6458 3.76289C14.3395 4.12178 15.2933 4.79605 15.8461 5.98146C16.3988 7.14512 16.659 9.15706 15.6943 9.74433C15.2066 10.038 14.7405 9.79871 14.372 9.61383C14.0902 9.47245 13.8192 9.33107 13.5591 9.39632C13.2014 9.48332 12.963 9.88571 12.8112 10.212C11.9658 12.1152 12.2151 16.2478 13.0172 17.7268C13.1581 17.977 13.3207 18.2489 13.6025 18.3467C13.8734 18.4446 14.1336 18.325 14.4912 18.1401C14.8489 17.9552 15.2391 17.7595 15.6618 17.9552C16.5722 18.4011 16.5072 20.3478 15.8569 21.7398C15.2933 22.9252 14.3503 23.5995 13.6567 23.9584C13.5916 23.9693 13.5266 23.9802 13.4724 23.9802Z" fill="#7D662D"/>
<path d="M12.2476 10.5926H4.97491C4.7473 10.5926 4.57388 10.4077 4.57388 10.1902C4.57388 9.97269 4.7473 9.78781 4.96407 9.78781H12.2368C12.4644 9.78781 12.6378 9.97269 12.6378 10.1902C12.6487 10.4077 12.4752 10.5926 12.2476 10.5926Z" fill="#7D662D"/>
<path d="M12.2476 17.9008H4.97491C4.7473 17.9008 4.57388 17.716 4.57388 17.4985C4.57388 17.2701 4.75814 17.0961 4.97491 17.0961H12.2476C12.4752 17.0961 12.6487 17.2809 12.6487 17.4985C12.6595 17.716 12.4752 17.9008 12.2476 17.9008Z" fill="#7D662D"/>
<path d="M21.959 23.9693C21.894 23.9693 21.829 23.9584 21.7748 23.9258C21.0811 23.5669 20.1273 22.8926 19.5745 21.7072C18.9134 20.3152 18.8592 18.3685 19.7588 17.9226C20.1815 17.7159 20.5825 17.9226 20.9294 18.0966C21.2979 18.2815 21.558 18.4011 21.8181 18.3032C22.1216 18.1945 22.295 17.8791 22.4034 17.6833C23.2055 16.2043 23.4439 12.0608 22.5985 10.1685C22.4468 9.84219 22.2083 9.42893 21.8506 9.3528C21.6339 9.29843 21.493 9.08092 21.5472 8.86341C21.6014 8.64591 21.8181 8.5154 22.0349 8.5589C22.5768 8.68941 23.0104 9.11355 23.3355 9.83132C24.311 12.0064 24.0292 16.3892 23.1079 18.064C22.967 18.325 22.6744 18.8579 22.0782 19.0645C21.4713 19.282 20.9402 19.0101 20.5608 18.8144C20.4091 18.7382 20.1707 18.6186 20.1056 18.6403C19.8672 18.76 19.7046 20.1085 20.3007 21.3483C20.7668 22.3271 21.558 22.8926 22.1433 23.1862C22.3384 23.2841 22.4251 23.5343 22.3167 23.73C22.2517 23.8931 22.1108 23.9693 21.959 23.9693Z" fill="#7D662D"/>
<path d="M20.3332 8.9613C20.1598 8.9613 20.0081 8.85254 19.9539 8.68941C19.0868 6.07933 21.1136 4.06739 21.7639 3.74113C21.959 3.63238 22.2083 3.71938 22.3059 3.91514C22.4034 4.11089 22.3275 4.36103 22.1324 4.45891C21.8398 4.61116 19.9756 6.20984 20.7126 8.42841C20.7885 8.64591 20.6692 8.8743 20.4525 8.93955C20.4199 8.9613 20.3766 8.9613 20.3332 8.9613Z" fill="#7D662D"/>
<path d="M30.4457 10.5817H23.1729C22.9453 10.5817 22.7719 10.3968 22.7719 10.1793C22.7719 9.96183 22.9562 9.77695 23.1729 9.77695H30.4457C30.6733 9.77695 30.8467 9.96183 30.8467 10.1793C30.8467 10.3968 30.6624 10.5817 30.4457 10.5817Z" fill="#7D662D"/>
<path d="M30.4457 17.8791H23.1729C22.9453 17.8791 22.7719 17.6942 22.7719 17.4767C22.7719 17.2483 22.9562 17.0743 23.1729 17.0743H30.4457C30.6733 17.0743 30.8467 17.2592 30.8467 17.4767C30.8467 17.7051 30.6733 17.8791 30.4457 17.8791Z" fill="#7D662D"/>
</svg>
