<svg width="56" height="18" viewBox="0 0 56 18" fill="none" xmlns="http://www.w3.org/2000/svg">
<path d="M52.1446 0.282745H48.6437C47.549 0.282745 46.7253 0.587255 46.2592 1.66391L39.5393 16.9873H44.3083C44.3083 16.9873 45.0995 14.9318 45.2621 14.4968H51.0716C51.2125 15.0732 51.6243 16.9873 51.6243 16.9873H55.8405L52.1446 0.282745ZM46.5627 11.0711C46.9312 10.1141 48.3402 6.38381 48.3402 6.38381C48.3402 6.38381 48.7304 5.40503 48.958 4.80689L49.2615 6.24243C49.2615 6.24243 50.1394 10.2228 50.3129 11.0711H46.5627Z" fill="white"/>
<path d="M33.4913 4.92653C33.4805 5.69868 34.4668 6.2207 36.0492 6.99285C38.6613 8.18914 39.8753 9.62468 39.8427 11.5387C39.8211 15.008 36.7212 17.2483 31.9631 17.2483C29.9254 17.2265 27.9744 16.8133 26.9123 16.3565L27.5517 12.6154L28.1262 12.8764C29.6111 13.4963 30.5866 13.7573 32.3966 13.7573C33.6972 13.7573 35.0954 13.2462 35.1171 12.126C35.128 11.3865 34.521 10.8645 32.7651 10.0488C31.0309 9.25492 28.7548 7.91725 28.7873 5.52468C28.809 2.28382 31.9739 0 36.4503 0C38.2061 0 39.626 0.369762 40.5147 0.706897L39.897 4.31751L39.4851 4.13263C38.6397 3.7955 37.5666 3.48011 36.0817 3.49099C34.315 3.48011 33.4913 4.23051 33.4913 4.92653Z" fill="white"/>
<path d="M26.8906 0.29364L24.0617 16.9873H19.5312L20.084 13.7464L20.9836 8.41752L22.3492 0.304515L26.8906 0.29364Z" fill="white"/>
<path d="M10.611 8.89602C9.09361 5.03527 5.47351 1.82704 0 0.500252L0.0541964 0.163116H7.08847C8.04227 0.206618 8.81181 0.500252 9.07194 1.52253L10.611 8.89602Z" fill="white"/>
<path d="M20.5175 0.315399L13.3748 16.9764H8.58418L4.5197 3.05599C7.43528 4.93742 9.91733 7.91727 10.7953 9.98358L11.2722 11.7128L15.716 0.315399H20.5175Z" fill="white"/>
</svg>
