<svg width="861" height="184" viewBox="0 0 861 184" fill="none" xmlns="http://www.w3.org/2000/svg">
<path d="M310.45 160.237L283.15 110.847H261.48V160.237H231.89V21.2373H296.89C325.89 21.2373 343.78 40.2373 343.78 66.0373C343.78 90.4273 328.15 103.757 313.15 107.307L344.62 160.237H310.45ZM313.37 65.8373C313.37 54.3773 304.37 47.2873 292.74 47.2873H261.48V84.7973H292.74C304.41 84.7973 313.37 77.7073 313.37 65.8373Z" fill="white"/>
<path d="M352.54 109.807C352.54 80.6271 374.21 57.0771 404.64 57.0771C434.85 57.0771 455.07 79.5871 455.07 112.307V118.557H380.26C382.13 130.847 392.13 141.067 409.26 141.067C417.81 141.067 429.48 137.517 435.94 131.267L447.81 148.777C437.81 157.947 421.97 162.777 406.34 162.777C375.67 162.737 352.54 142.107 352.54 109.807ZM404.64 78.8071C388.17 78.8071 381.09 90.2671 380.05 100.267H429.64C428.81 90.6371 422.14 78.7571 404.64 78.7571V78.8071Z" fill="white"/>
<path d="M467.77 109.807C467.77 78.9671 490.28 57.0771 521.12 57.0771C541.75 57.0771 554.26 66.0771 560.92 75.2071L543.63 91.4672C538.83 84.3772 531.54 80.6271 522.37 80.6271C506.37 80.6271 495.07 92.2971 495.07 109.807C495.07 127.317 506.33 139.187 522.37 139.187C526.549 139.27 530.683 138.307 534.396 136.386C538.109 134.465 541.283 131.647 543.63 128.187L560.92 144.437C554.26 153.607 541.75 162.777 521.12 162.777C490.28 162.737 467.77 140.857 467.77 109.807Z" fill="white"/>
<path d="M646.15 160.237V147.527C641.621 152.38 636.133 156.239 630.034 158.857C623.934 161.475 617.357 162.797 610.72 162.737C588.64 162.737 578.22 150.647 578.22 131.057V59.5771H604.68V120.637C604.68 134.637 611.98 139.187 623.23 139.187C633.44 139.187 641.57 133.557 646.15 127.727V59.5771H672.62V160.237H646.15Z" fill="white"/>
<path d="M698.87 160.237V59.5772H725.33V73.1272C732.63 64.3772 744.92 57.1272 757.43 57.1272V82.9172C755.026 82.4509 752.579 82.243 750.13 82.2972C741.38 82.2972 729.71 87.2972 725.33 93.7572V160.237H698.87Z" fill="white"/>
<path d="M834.32 160.237V149.607C827.44 157.947 815.56 162.737 802.43 162.737C786.43 162.737 767.63 151.897 767.63 129.397C767.63 105.637 786.39 96.8871 802.43 96.8871C815.98 96.8871 827.65 101.257 834.32 109.177V96.4672C834.32 86.2572 825.56 79.5871 812.23 79.5871C801.6 79.5871 791.6 83.7572 783.23 91.4672L772.84 72.9171C785.14 61.9171 800.97 57.0771 816.84 57.0771C839.97 57.0771 861.02 66.2472 861.02 95.2172V160.217L834.32 160.237ZM834.32 136.057V123.557C829.94 117.727 821.61 114.557 813.06 114.557C802.64 114.557 794.06 120.187 794.06 129.767C794.06 139.347 802.6 144.767 813.06 144.767C821.61 144.817 829.94 141.897 834.32 136.057Z" fill="white"/>
<path d="M139.52 170.777L150.52 183.987H91.52V112.987L105.74 130.097C112.714 127.582 118.864 123.201 123.519 117.431C128.175 111.662 131.157 104.725 132.141 97.3768C133.126 90.0289 132.074 82.5516 129.102 75.7601C126.129 68.9685 121.349 63.1232 115.283 58.8611C109.217 54.599 102.098 52.0837 94.7008 51.5893C87.3036 51.0949 79.9127 52.6404 73.3335 56.0574C66.7543 59.4743 61.2392 64.6316 57.3892 70.9672C53.5393 77.3028 51.5022 84.5736 51.5 91.9872V183.987H0V91.9872C0.00223386 75.9132 4.21585 60.1203 12.2211 46.1815C20.2264 32.2427 31.744 20.6446 45.6267 12.5424C59.5093 4.44014 75.2725 0.11657 91.3461 0.0023244C107.42 -0.111922 123.243 3.98714 137.239 11.8912C151.236 19.7953 162.917 31.2285 171.119 45.0521C179.322 58.8757 183.76 74.6071 183.991 90.6795C184.221 106.752 180.237 122.604 172.434 136.657C164.632 150.711 153.284 162.475 139.52 170.777Z" fill="#A28CFF"/>
</svg>
