<svg width="184" height="184" viewBox="0 0 184 184" fill="none" xmlns="http://www.w3.org/2000/svg">
<path d="M139.52 170.777L150.52 183.987H91.52V112.987L105.74 130.097C112.714 127.582 118.864 123.201 123.519 117.431C128.175 111.662 131.157 104.725 132.141 97.3768C133.126 90.0289 132.074 82.5516 129.102 75.7601C126.129 68.9685 121.349 63.1232 115.283 58.8611C109.217 54.599 102.098 52.0837 94.7008 51.5893C87.3036 51.0949 79.9127 52.6404 73.3335 56.0574C66.7543 59.4743 61.2392 64.6316 57.3892 70.9672C53.5393 77.3028 51.5022 84.5736 51.5 91.9872V183.987H0V91.9872C0.00223386 75.9132 4.21585 60.1203 12.2211 46.1815C20.2264 32.2427 31.744 20.6446 45.6267 12.5424C59.5093 4.44014 75.2725 0.11657 91.3461 0.0023244C107.42 -0.111922 123.243 3.98714 137.239 11.8912C151.236 19.7953 162.917 31.2285 171.119 45.0521C179.322 58.8757 183.76 74.6071 183.991 90.6795C184.221 106.752 180.237 122.604 172.434 136.657C164.632 150.711 153.284 162.475 139.52 170.777Z" fill="#A28CFF"/>
</svg>
